<?xml version="1.0" encoding="utf-8" standalone="no"?>
<!DOCTYPE svg PUBLIC "-//W3C//DTD SVG 1.1//EN"
  "http://www.w3.org/Graphics/SVG/1.1/DTD/svg11.dtd">
<svg xmlns:xlink="http://www.w3.org/1999/xlink" width="460.8pt" height="345.6pt" viewBox="0 0 460.8 345.6" xmlns="http://www.w3.org/2000/svg" version="1.1">
 <metadata>
  <rdf:RDF xmlns:dc="http://purl.org/dc/elements/1.1/" xmlns:cc="http://creativecommons.org/ns#" xmlns:rdf="http://www.w3.org/1999/02/22-rdf-syntax-ns#">
   <cc:Work>
    <dc:type rdf:resource="http://purl.org/dc/dcmitype/StillImage"/>
    <dc:date>2026-02-18T14:16:36.907798</dc:date>
    <dc:format>image/svg+xml</dc:format>
    <dc:creator>
     <cc:Agent>
      <dc:title>Matplotlib v3.10.8, https://matplotlib.org/</dc:title>
     </cc:Agent>
    </dc:creator>
   </cc:Work>
  </rdf:RDF>
 </metadata>
 <defs>
  <style type="text/css">*{stroke-linejoin: round; stroke-linecap: butt}</style>
 </defs>
 <g id="figure_1">
  <g id="patch_1">
   <path d="M 0 345.6 
L 460.8 345.6 
L 460.8 0 
L 0 0 
z
" style="fill: #ffffff"/>
  </g>
  <g id="axes_1">
   <g id="patch_2">
    <path d="M 57.6 307.584 
L 414.72 307.584 
L 414.72 41.472 
L 57.6 41.472 
z
" style="fill: #ffffff"/>
   </g>
   <g id="matplotlib.axis_1">
    <g id="xtick_1">
     <g id="line2d_1">
      <defs>
       <path id="m0ddf5f5937" d="M 0 0 
L 0 3.5 
" style="stroke: #000000; stroke-width: 0.8"/>
      </defs>
      <g>
       <use xlink:href="#m0ddf5f5937" x="83.709837" y="307.584" style="stroke: #000000; stroke-width: 0.8"/>
      </g>
     </g>
     <g id="text_1">
      <text style="font-size: 10px; font-family: 'Arial Unicode MS', sans-serif; text-anchor: middle" x="83.709837" y="321.741812" transform="rotate(-0 83.709837 321.741812)">−0.2</text>
     </g>
    </g>
    <g id="xtick_2">
     <g id="line2d_2">
      <g>
       <use xlink:href="#m0ddf5f5937" x="127.301605" y="307.584" style="stroke: #000000; stroke-width: 0.8"/>
      </g>
     </g>
     <g id="text_2">
      <text style="font-size: 10px; font-family: 'Arial Unicode MS', sans-serif; text-anchor: middle" x="127.301605" y="321.741812" transform="rotate(-0 127.301605 321.741812)">−0.1</text>
     </g>
    </g>
    <g id="xtick_3">
     <g id="line2d_3">
      <g>
       <use xlink:href="#m0ddf5f5937" x="170.893372" y="307.584" style="stroke: #000000; stroke-width: 0.8"/>
      </g>
     </g>
     <g id="text_3">
      <text style="font-size: 10px; font-family: 'Arial Unicode MS', sans-serif; text-anchor: middle" x="170.893372" y="321.741812" transform="rotate(-0 170.893372 321.741812)">0.0</text>
     </g>
    </g>
    <g id="xtick_4">
     <g id="line2d_4">
      <g>
       <use xlink:href="#m0ddf5f5937" x="214.48514" y="307.584" style="stroke: #000000; stroke-width: 0.8"/>
      </g>
     </g>
     <g id="text_4">
      <text style="font-size: 10px; font-family: 'Arial Unicode MS', sans-serif; text-anchor: middle" x="214.48514" y="321.741812" transform="rotate(-0 214.48514 321.741812)">0.1</text>
     </g>
    </g>
    <g id="xtick_5">
     <g id="line2d_5">
      <g>
       <use xlink:href="#m0ddf5f5937" x="258.076907" y="307.584" style="stroke: #000000; stroke-width: 0.8"/>
      </g>
     </g>
     <g id="text_5">
      <text style="font-size: 10px; font-family: 'Arial Unicode MS', sans-serif; text-anchor: middle" x="258.076907" y="321.741812" transform="rotate(-0 258.076907 321.741812)">0.2</text>
     </g>
    </g>
    <g id="xtick_6">
     <g id="line2d_6">
      <g>
       <use xlink:href="#m0ddf5f5937" x="301.668675" y="307.584" style="stroke: #000000; stroke-width: 0.8"/>
      </g>
     </g>
     <g id="text_6">
      <text style="font-size: 10px; font-family: 'Arial Unicode MS', sans-serif; text-anchor: middle" x="301.668675" y="321.741812" transform="rotate(-0 301.668675 321.741812)">0.3</text>
     </g>
    </g>
    <g id="xtick_7">
     <g id="line2d_7">
      <g>
       <use xlink:href="#m0ddf5f5937" x="345.260443" y="307.584" style="stroke: #000000; stroke-width: 0.8"/>
      </g>
     </g>
     <g id="text_7">
      <text style="font-size: 10px; font-family: 'Arial Unicode MS', sans-serif; text-anchor: middle" x="345.260443" y="321.741812" transform="rotate(-0 345.260443 321.741812)">0.4</text>
     </g>
    </g>
    <g id="xtick_8">
     <g id="line2d_8">
      <g>
       <use xlink:href="#m0ddf5f5937" x="388.85221" y="307.584" style="stroke: #000000; stroke-width: 0.8"/>
      </g>
     </g>
     <g id="text_8">
      <text style="font-size: 10px; font-family: 'Arial Unicode MS', sans-serif; text-anchor: middle" x="388.85221" y="321.741812" transform="rotate(-0 388.85221 321.741812)">0.5</text>
     </g>
    </g>
   </g>
   <g id="matplotlib.axis_2">
    <g id="ytick_1">
     <g id="line2d_9">
      <defs>
       <path id="m11b7b7a8d2" d="M 0 0 
L -3.5 0 
" style="stroke: #000000; stroke-width: 0.8"/>
      </defs>
      <g>
       <use xlink:href="#m11b7b7a8d2" x="57.6" y="307.584" style="stroke: #000000; stroke-width: 0.8"/>
      </g>
     </g>
     <g id="text_9">
      <text style="font-size: 10px; font-family: 'Arial Unicode MS', sans-serif; text-anchor: end" x="50.6" y="311.162906" transform="rotate(-0 50.6 311.162906)">0.0</text>
     </g>
    </g>
    <g id="ytick_2">
     <g id="line2d_10">
      <g>
       <use xlink:href="#m11b7b7a8d2" x="57.6" y="254.3616" style="stroke: #000000; stroke-width: 0.8"/>
      </g>
     </g>
     <g id="text_10">
      <text style="font-size: 10px; font-family: 'Arial Unicode MS', sans-serif; text-anchor: end" x="50.6" y="257.940506" transform="rotate(-0 50.6 257.940506)">0.2</text>
     </g>
    </g>
    <g id="ytick_3">
     <g id="line2d_11">
      <g>
       <use xlink:href="#m11b7b7a8d2" x="57.6" y="201.1392" style="stroke: #000000; stroke-width: 0.8"/>
      </g>
     </g>
     <g id="text_11">
      <text style="font-size: 10px; font-family: 'Arial Unicode MS', sans-serif; text-anchor: end" x="50.6" y="204.718106" transform="rotate(-0 50.6 204.718106)">0.4</text>
     </g>
    </g>
    <g id="ytick_4">
     <g id="line2d_12">
      <g>
       <use xlink:href="#m11b7b7a8d2" x="57.6" y="147.9168" style="stroke: #000000; stroke-width: 0.8"/>
      </g>
     </g>
     <g id="text_12">
      <text style="font-size: 10px; font-family: 'Arial Unicode MS', sans-serif; text-anchor: end" x="50.6" y="151.495706" transform="rotate(-0 50.6 151.495706)">0.6</text>
     </g>
    </g>
    <g id="ytick_5">
     <g id="line2d_13">
      <g>
       <use xlink:href="#m11b7b7a8d2" x="57.6" y="94.6944" style="stroke: #000000; stroke-width: 0.8"/>
      </g>
     </g>
     <g id="text_13">
      <text style="font-size: 10px; font-family: 'Arial Unicode MS', sans-serif; text-anchor: end" x="50.6" y="98.273306" transform="rotate(-0 50.6 98.273306)">0.8</text>
     </g>
    </g>
    <g id="ytick_6">
     <g id="line2d_14">
      <g>
       <use xlink:href="#m11b7b7a8d2" x="57.6" y="41.472" style="stroke: #000000; stroke-width: 0.8"/>
      </g>
     </g>
     <g id="text_14">
      <text style="font-size: 10px; font-family: 'Arial Unicode MS', sans-serif; text-anchor: end" x="50.6" y="45.050906" transform="rotate(-0 50.6 45.050906)">1.0</text>
     </g>
    </g>
    <g id="text_15">
     <text style="font-size: 10px; font-family: 'Arial Unicode MS', sans-serif; text-anchor: middle" x="30.707813" y="174.528" transform="rotate(-90 30.707813 174.528)">Proportion</text>
    </g>
   </g>
   <g id="line2d_15">
    <path d="M 389.96063 307.584 
L 389.96063 303.835944 
L 390.118388 303.835944 
L 390.141833 296.339831 
L 390.244098 296.339831 
L 390.349173 285.095662 
L 390.911774 285.095662 
L 390.911774 281.347606 
L 391.096445 281.347606 
L 391.096445 277.599549 
L 391.210389 277.599549 
L 391.210389 273.851493 
L 391.779787 273.851493 
L 391.779787 270.103437 
L 391.899621 270.103437 
L 391.899621 266.35538 
L 392.134642 266.35538 
L 392.236339 255.111211 
L 392.360962 255.111211 
L 392.41721 247.615099 
L 392.582083 247.615099 
L 392.682691 240.118986 
L 393.238274 240.118986 
L 393.27943 232.622873 
L 393.417007 232.622873 
L 393.443603 225.126761 
L 393.546193 225.126761 
L 393.626302 217.630648 
L 393.66497 217.630648 
L 393.66497 213.882592 
L 393.78657 213.882592 
L 393.789563 206.386479 
L 393.905272 206.386479 
L 393.966422 195.14231 
L 394.120055 195.14231 
L 394.1968 180.150085 
L 394.246963 180.150085 
L 394.273124 168.905915 
L 394.367705 168.905915 
L 394.38589 161.409803 
L 394.680598 161.409803 
L 394.680598 157.661746 
L 394.830912 157.661746 
L 394.830912 153.91369 
L 394.972434 153.91369 
L 395.001322 146.417577 
L 395.132178 146.417577 
L 395.242457 131.425352 
L 395.283274 131.425352 
L 395.351293 123.929239 
L 395.426503 123.929239 
L 395.533037 108.937014 
L 395.583982 108.937014 
L 395.621367 101.440901 
L 395.732022 101.440901 
L 395.732022 97.692845 
L 395.866166 97.692845 
L 395.867206 90.196732 
L 395.996326 90.196732 
L 396.063915 82.70062 
L 396.222505 82.70062 
L 396.247484 75.204507 
L 396.40998 75.204507 
L 396.494135 67.708394 
L 396.94899 67.708394 
L 396.94899 63.960338 
L 397.177899 63.960338 
L 397.271512 56.464225 
L 397.423497 56.464225 
L 397.423497 52.716169 
L 397.863957 52.716169 
L 397.863957 48.968113 
L 398.22748 48.968113 
L 398.22748 45.220056 
L 398.487273 45.220056 
L 398.487273 41.472 
L 398.487273 41.472 
" clip-path="url(#pbd3beef080)" style="fill: none; stroke: #1f77b4; stroke-width: 3; stroke-linecap: square"/>
   </g>
   <g id="line2d_16">
    <path d="M 394.207821 307.584 
L 394.207821 41.472 
" clip-path="url(#pbd3beef080)" style="fill: none; stroke-dasharray: 11.1,4.8; stroke-dashoffset: 0; stroke: #000000; stroke-opacity: 0.5; stroke-width: 3"/>
   </g>
   <g id="line2d_17">
    <path d="M 73.832727 307.584 
L 73.832727 307.488345 
L 92.066857 307.39269 
L 92.066857 307.297035 
L 95.652379 307.20138 
L 95.652379 307.105725 
L 96.562071 307.01007 
L 96.594575 306.818761 
L 100.353898 306.723106 
L 100.353898 306.627451 
L 104.356209 306.531796 
L 104.356209 306.436141 
L 105.115194 306.340486 
L 105.115194 306.244831 
L 106.164496 306.149176 
L 106.164496 306.053521 
L 107.735218 305.957866 
L 107.735218 305.862211 
L 108.274773 305.766556 
L 108.362 305.479592 
L 109.20913 305.383937 
L 109.20913 305.288282 
L 110.032158 305.192627 
L 110.112676 305.001317 
L 110.947259 304.905662 
L 110.947259 304.810007 
L 111.504746 304.714352 
L 111.504746 304.618697 
L 112.286212 304.523042 
L 112.300387 304.331733 
L 113.918706 304.236078 
L 113.918706 304.140423 
L 114.312874 304.044768 
L 114.312874 303.949113 
L 115.663433 303.853458 
L 115.663433 303.757803 
L 116.15053 303.662148 
L 116.15053 303.566493 
L 116.500651 303.470838 
L 116.500651 303.375183 
L 118.100384 303.279528 
L 118.100384 303.183873 
L 118.489979 303.088219 
L 118.576522 302.896909 
L 119.526094 302.801254 
L 119.526094 302.705599 
L 119.839424 302.609944 
L 119.839424 302.514289 
L 120.771429 302.418634 
L 120.867096 302.227324 
L 121.221983 302.131669 
L 121.221983 302.036014 
L 121.656323 301.940359 
L 121.656323 301.844705 
L 121.834713 301.74905 
L 121.915021 301.462085 
L 122.144469 301.36643 
L 122.144469 301.270775 
L 122.513683 301.17512 
L 122.597794 300.7925 
L 122.775212 300.696845 
L 122.775212 300.601191 
L 123.215017 300.505536 
L 123.215017 300.409881 
L 123.399628 300.314226 
L 123.480409 300.122916 
L 123.790509 300.027261 
L 123.790509 299.931606 
L 124.000077 299.835951 
L 124.000077 299.740296 
L 124.200284 299.644641 
L 124.200284 299.548986 
L 124.807217 299.453331 
L 124.807217 299.357676 
L 125.146589 299.262022 
L 125.256163 298.975057 
L 125.376944 298.879402 
L 125.376944 298.783747 
L 125.677701 298.688092 
L 125.677701 298.592437 
L 126.054801 298.496782 
L 126.141618 298.305472 
L 126.645361 298.209817 
L 126.748908 298.018508 
L 126.796633 297.922853 
L 126.796633 297.827198 
L 127.210789 297.731543 
L 127.316084 297.444578 
L 127.453057 297.348923 
L 127.478781 297.157613 
L 127.655538 297.061958 
L 127.762725 296.774994 
L 127.806983 296.679339 
L 127.806983 296.583684 
L 127.983775 296.488029 
L 128.054134 296.296719 
L 128.458583 296.201064 
L 128.474211 296.009754 
L 128.618342 295.914099 
L 128.618342 295.818444 
L 128.83594 295.722789 
L 128.897285 295.53148 
L 129.076801 295.435825 
L 129.168017 295.244515 
L 129.297035 295.14886 
L 129.349909 294.95755 
L 129.55024 294.861895 
L 129.590782 294.670585 
L 129.811845 294.57493 
L 129.811845 294.479275 
L 130.11717 294.38362 
L 130.216782 294.096656 
L 130.297338 294.001001 
L 130.297338 293.905346 
L 130.752588 293.809691 
L 130.810908 293.427071 
L 130.931136 293.331416 
L 130.995035 293.044451 
L 131.105935 292.948797 
L 131.194182 292.566177 
L 131.259823 292.470522 
L 131.342361 292.279212 
L 131.451907 292.183557 
L 131.557978 291.896592 
L 131.700117 291.800937 
L 131.745495 291.609628 
L 131.821711 291.513973 
L 131.906803 291.227008 
L 132.088401 291.131353 
L 132.116853 290.940043 
L 132.311452 290.844388 
L 132.311452 290.748733 
L 132.536478 290.653078 
L 132.63024 290.174804 
L 133.192961 290.079149 
L 133.213862 289.887839 
L 133.314363 289.792184 
L 133.398442 289.409564 
L 133.663284 289.313909 
L 133.663284 289.218254 
L 133.915638 289.1226 
L 134.016524 288.835635 
L 134.321324 288.73998 
L 134.412865 288.35736 
L 134.766979 288.261705 
L 134.815578 288.070395 
L 134.988373 287.97474 
L 135.041893 287.592121 
L 135.185264 287.496466 
L 135.269326 287.305156 
L 135.482728 287.209501 
L 135.593619 287.018191 
L 135.770665 286.922536 
L 135.879846 286.731226 
L 136.094555 286.635572 
L 136.193312 286.348607 
L 136.518298 286.252952 
L 136.564029 286.061642 
L 136.900079 285.965987 
L 136.902394 285.774677 
L 137.104907 285.679022 
L 137.104907 285.583367 
L 137.312732 285.487712 
L 137.39416 285.200748 
L 137.655315 285.105093 
L 137.713199 284.913783 
L 137.861433 284.818128 
L 137.861433 284.722473 
L 138.08561 284.626818 
L 138.116508 284.435508 
L 138.271109 284.339853 
L 138.368592 284.148543 
L 138.39323 284.052889 
L 138.49572 283.765924 
L 138.646712 283.670269 
L 138.729387 283.287649 
L 138.823202 283.191994 
L 138.90699 283.000684 
L 139.089015 282.905029 
L 139.113251 282.71372 
L 139.347698 282.618065 
L 139.366114 282.3311 
L 139.512018 282.235445 
L 139.512018 282.13979 
L 139.713479 282.044135 
L 139.761271 281.852825 
L 139.888023 281.75717 
L 139.970635 281.470206 
L 140.07938 281.374551 
L 140.155827 281.087586 
L 140.237649 280.991931 
L 140.325352 280.704966 
L 140.369196 280.609311 
L 140.467265 280.322347 
L 140.534053 280.226692 
L 140.638977 280.035382 
L 140.773637 279.939727 
L 140.874876 279.461452 
L 141.015613 279.365797 
L 141.015613 279.270142 
L 141.153909 279.174487 
L 141.1871 278.791868 
L 141.560009 278.696213 
L 141.659106 278.313593 
L 141.887646 278.217938 
L 141.95428 277.930973 
L 142.132222 277.835318 
L 142.132222 277.739664 
L 142.294896 277.644009 
L 142.338368 277.357044 
L 142.537825 277.261389 
L 142.613437 276.783114 
L 142.838233 276.687459 
L 142.928491 276.30484 
L 143.111489 276.209185 
L 143.221787 276.017875 
L 143.296535 275.92222 
L 143.362842 275.5396 
L 143.470147 275.443945 
L 143.565561 275.252636 
L 143.739172 275.156981 
L 143.772792 274.965671 
L 143.869282 274.870016 
L 143.95628 274.296086 
L 144.020457 274.200431 
L 144.121894 273.817812 
L 144.171402 273.722157 
L 144.228009 273.339537 
L 144.341271 273.243882 
L 144.438614 272.574298 
L 144.525792 272.478643 
L 144.525792 272.382988 
L 144.702229 272.287333 
L 144.797582 271.904713 
L 144.837556 271.809058 
L 144.934915 271.426439 
L 145.013637 271.330784 
L 145.065497 271.043819 
L 145.244691 270.948164 
L 145.348845 270.565544 
L 145.397704 270.469889 
L 145.488654 269.89596 
L 145.547377 269.800305 
L 145.597186 269.32203 
L 145.703043 269.226375 
L 145.798713 268.843756 
L 145.887325 268.748101 
L 145.980931 268.174171 
L 146.071031 268.078516 
L 146.127162 267.887206 
L 146.28725 267.791551 
L 146.296196 267.600242 
L 146.51681 267.504587 
L 146.57452 267.121967 
L 146.646695 267.026312 
L 146.745549 266.452382 
L 146.940677 266.356728 
L 146.940677 266.261073 
L 147.150419 266.165418 
L 147.150419 266.069763 
L 147.349413 265.974108 
L 147.405557 265.591488 
L 147.56985 265.495833 
L 147.651716 265.017559 
L 147.800748 264.921904 
L 147.909479 264.443629 
L 147.945744 264.347974 
L 148.052747 264.156664 
L 148.125942 264.061009 
L 148.189352 263.67839 
L 148.311788 263.582735 
L 148.380866 263.29577 
L 148.495405 263.200115 
L 148.548508 262.817495 
L 148.706954 262.72184 
L 148.773196 262.339221 
L 148.83427 262.243566 
L 148.910186 262.052256 
L 149.09951 261.956601 
L 149.187403 261.669636 
L 149.225075 261.573981 
L 149.325658 261.095707 
L 149.386931 261.000052 
L 149.416024 260.713087 
L 149.708738 260.617432 
L 149.78462 260.139157 
L 149.98604 260.043503 
L 150.089806 259.469573 
L 150.150032 259.373918 
L 150.251037 258.895643 
L 150.357823 258.799988 
L 150.446943 258.321714 
L 150.578444 258.226059 
L 150.678261 257.843439 
L 150.769036 257.747784 
L 150.850286 257.46082 
L 150.903864 257.365165 
L 151.000516 256.88689 
L 151.179541 256.791235 
L 151.268161 256.217306 
L 151.418049 256.121651 
L 151.418049 256.025996 
L 151.550771 255.930341 
L 151.64428 255.643376 
L 151.690861 255.547721 
L 151.736746 255.260756 
L 151.832524 255.165101 
L 151.911243 254.495517 
L 151.986516 254.399862 
L 152.094957 254.017242 
L 152.154086 253.921587 
L 152.238472 253.443313 
L 152.298373 253.347658 
L 152.407166 252.869383 
L 152.475608 252.773728 
L 152.530622 252.486763 
L 152.598649 252.391109 
L 152.668901 252.104144 
L 152.760551 252.008489 
L 152.828336 251.721524 
L 152.978636 251.625869 
L 153.081832 250.956285 
L 153.165783 250.86063 
L 153.247555 250.573665 
L 153.30658 250.47801 
L 153.397634 249.904081 
L 153.437208 249.808426 
L 153.502189 249.617116 
L 153.636334 249.521461 
L 153.726448 249.234496 
L 153.764337 249.138841 
L 153.818448 248.756221 
L 153.919694 248.660566 
L 154.027699 247.799672 
L 154.049691 247.704017 
L 154.13751 247.225743 
L 154.269694 247.130088 
L 154.361614 246.651813 
L 154.410803 246.556158 
L 154.478709 246.173538 
L 154.631059 246.077884 
L 154.719193 245.695264 
L 154.752458 245.599609 
L 154.855283 244.738715 
L 155.119026 244.64306 
L 155.164409 244.164785 
L 155.350981 244.06913 
L 155.426602 243.68651 
L 155.558784 243.590855 
L 155.668547 243.208236 
L 155.756931 243.112581 
L 155.756931 243.016926 
L 155.877403 242.921271 
L 155.895842 242.634306 
L 156.002266 242.538651 
L 156.005272 242.347341 
L 156.207037 242.251687 
L 156.314136 241.582102 
L 156.364391 241.486447 
L 156.462533 241.103827 
L 156.49381 241.008173 
L 156.599544 240.147278 
L 156.694594 240.051623 
L 156.796338 239.477694 
L 156.842436 239.382039 
L 156.948555 238.808109 
L 157.027065 238.712454 
L 157.06388 238.521145 
L 157.210715 238.42549 
L 157.315033 238.23418 
L 157.356091 238.138525 
L 157.422708 237.755905 
L 157.511968 237.66025 
L 157.602758 236.990666 
L 157.647846 236.895011 
L 157.750035 236.416736 
L 157.854369 236.321081 
L 157.889101 235.842807 
L 158.006761 235.747152 
L 158.113551 235.268877 
L 158.132989 235.173222 
L 158.156494 234.886257 
L 158.306186 234.790602 
L 158.354105 234.312328 
L 158.480503 234.216673 
L 158.58339 233.738398 
L 158.648514 233.642743 
L 158.683262 233.355779 
L 158.846153 233.260124 
L 158.953196 232.781849 
L 159.016124 232.686194 
L 159.061098 232.207919 
L 159.20479 232.112265 
L 159.299166 231.538335 
L 159.36577 231.44268 
L 159.47329 231.155715 
L 159.520838 231.06006 
L 159.620088 230.390476 
L 159.651983 230.294821 
L 159.731055 229.625237 
L 159.850369 229.529582 
L 159.888879 229.338272 
L 159.986083 229.242617 
L 160.092491 228.668687 
L 160.129468 228.573032 
L 160.224903 228.094758 
L 160.263629 227.999103 
L 160.331553 227.520828 
L 160.466905 227.425173 
L 160.557536 226.659934 
L 160.586103 226.564279 
L 160.672793 226.372969 
L 160.772313 226.277314 
L 160.876819 225.60773 
L 161.049523 225.512075 
L 161.14954 225.0338 
L 161.211407 224.938145 
L 161.312394 224.459871 
L 161.340991 224.364216 
L 161.442124 224.077251 
L 161.527364 223.981596 
L 161.623467 223.407666 
L 161.752741 223.312012 
L 161.841845 222.833737 
L 161.936256 222.738082 
L 162.039743 222.451117 
L 162.060287 222.355462 
L 162.168124 221.781533 
L 162.241663 221.685878 
L 162.301652 221.207603 
L 162.39021 221.111948 
L 162.462686 220.442364 
L 162.559114 220.346709 
L 162.594303 220.155399 
L 162.773157 220.059744 
L 162.811113 219.772779 
L 162.899913 219.677124 
L 162.987545 219.00754 
L 163.033025 218.911885 
L 163.130443 218.337955 
L 163.241566 218.242301 
L 163.333354 217.668371 
L 163.384551 217.572716 
L 163.464672 217.094441 
L 163.509597 216.998786 
L 163.553746 216.616167 
L 163.655672 216.520512 
L 163.741982 216.233547 
L 163.835366 216.137892 
L 163.941807 215.755272 
L 163.99218 215.659618 
L 164.066335 215.181343 
L 164.160514 215.085688 
L 164.267571 214.416104 
L 164.306933 214.320449 
L 164.409501 213.650864 
L 164.458332 213.555209 
L 164.458332 213.459554 
L 164.652405 213.363899 
L 164.754879 212.98128 
L 164.799053 212.885625 
L 164.889656 212.311695 
L 164.926275 212.21604 
L 165.011492 211.259491 
L 165.049608 211.163836 
L 165.159612 210.494252 
L 165.184133 210.398597 
L 165.280188 209.920322 
L 165.370026 209.824667 
L 165.46636 209.155083 
L 165.531792 209.059428 
L 165.616669 208.581153 
L 165.709475 208.485498 
L 165.815861 207.815914 
L 165.852489 207.720259 
L 165.948557 206.668055 
L 165.988409 206.5724 
L 166.022956 206.38109 
L 166.145893 206.285435 
L 166.249833 205.80716 
L 166.324397 205.711505 
L 166.423154 205.041921 
L 166.449723 204.946266 
L 166.54937 204.563646 
L 166.721704 204.467991 
L 166.827253 203.989717 
L 166.870771 203.894062 
L 166.929707 203.511442 
L 167.040159 203.415787 
L 167.128167 202.841858 
L 167.213755 202.746203 
L 167.32017 202.076618 
L 167.349078 201.980963 
L 167.459493 201.407034 
L 167.518089 201.311379 
L 167.608693 200.833104 
L 167.636676 200.737449 
L 167.747333 200.259175 
L 167.772874 200.16352 
L 167.857563 199.58959 
L 167.901711 199.493935 
L 168.012813 199.111316 
L 168.09389 199.015661 
L 168.199798 198.059111 
L 168.252464 197.963457 
L 168.348448 197.293872 
L 168.40371 197.198217 
L 168.471371 196.337323 
L 168.54439 196.241668 
L 168.635047 195.667738 
L 168.717117 195.572083 
L 168.819596 194.806844 
L 168.845672 194.711189 
L 168.92078 193.94595 
L 169.018129 193.850295 
L 169.110935 193.467675 
L 169.17094 193.37202 
L 169.265515 192.702436 
L 169.298961 192.606781 
L 169.387701 191.937196 
L 169.41036 191.841541 
L 169.515208 191.267612 
L 169.550192 191.171957 
L 169.621594 190.502372 
L 169.74391 190.406717 
L 169.837018 189.641478 
L 169.888925 189.545823 
L 169.977854 188.780584 
L 170.044539 188.684929 
L 170.135751 188.110999 
L 170.173655 188.015344 
L 170.270042 186.96314 
L 170.358578 186.867485 
L 170.44523 186.197901 
L 170.475518 186.102246 
L 170.575938 185.815281 
L 170.603708 185.719626 
L 170.67625 185.337006 
L 170.728156 185.241352 
L 170.821704 184.858732 
L 170.913716 184.763077 
L 171.009864 184.284802 
L 171.034374 184.189147 
L 171.1428 183.710873 
L 171.151473 183.615218 
L 171.258204 183.328253 
L 171.311596 183.232598 
L 171.396233 182.945633 
L 171.490842 182.849978 
L 171.598289 182.084739 
L 171.656645 181.989084 
L 171.763292 181.415155 
L 171.909543 181.3195 
L 171.990944 180.649915 
L 172.043675 180.55426 
L 172.132926 179.980331 
L 172.196589 179.884676 
L 172.290449 179.502056 
L 172.340348 179.406401 
L 172.448316 178.928127 
L 172.565387 178.832472 
L 172.665438 178.258542 
L 172.678941 178.162887 
L 172.78811 177.780267 
L 172.94935 177.684613 
L 173.059366 177.301993 
L 173.115658 177.206338 
L 173.212466 176.632408 
L 173.236475 176.536753 
L 173.310386 176.058479 
L 173.363703 175.962824 
L 173.468308 175.006275 
L 173.620498 174.91062 
L 173.722375 174.528 
L 173.736937 174.432345 
L 173.797285 173.95407 
L 173.864808 173.858416 
L 173.864808 173.762761 
L 173.993956 173.667106 
L 174.096359 172.710556 
L 174.126879 172.614902 
L 174.190222 172.136627 
L 174.267807 172.040972 
L 174.326953 171.658352 
L 174.388355 171.562697 
L 174.498775 170.988768 
L 174.534757 170.893113 
L 174.638188 170.510493 
L 174.775759 170.414838 
L 174.832842 170.032219 
L 174.962087 169.936564 
L 175.05287 169.362634 
L 175.099971 169.266979 
L 175.188265 168.788705 
L 175.243688 168.69305 
L 175.328943 168.31043 
L 175.407524 168.214775 
L 175.493805 167.7365 
L 175.542343 167.640845 
L 175.650506 167.353881 
L 175.667809 167.258226 
L 175.774504 166.779951 
L 175.847204 166.684296 
L 175.958263 166.110367 
L 176.009051 166.014712 
L 176.116805 165.632092 
L 176.131356 165.536437 
L 176.228298 165.345127 
L 176.367473 165.249472 
L 176.440378 164.866853 
L 176.502561 164.771198 
L 176.607078 164.005958 
L 176.689892 163.910303 
L 176.779311 163.527684 
L 176.834873 163.432029 
L 176.944272 162.762444 
L 177.009494 162.666789 
L 177.095554 162.188515 
L 177.138579 162.09286 
L 177.228817 161.231965 
L 177.26054 161.136311 
L 177.26054 161.040656 
L 177.411389 160.945001 
L 177.505988 160.466726 
L 177.564287 160.371071 
L 177.667013 159.701487 
L 177.693246 159.605832 
L 177.752392 159.127557 
L 177.819285 159.031902 
L 177.886444 158.457973 
L 177.958904 158.362318 
L 178.050729 157.788388 
L 178.136122 157.692733 
L 178.19754 157.405769 
L 178.277757 157.310114 
L 178.314267 156.736184 
L 178.414033 156.640529 
L 178.511237 156.0666 
L 178.603101 155.970945 
L 178.700049 155.397015 
L 178.744824 155.30136 
L 178.840245 154.631776 
L 178.941632 154.536121 
L 179.039946 153.675226 
L 179.093832 153.579572 
L 179.183955 153.388262 
L 179.237765 153.292607 
L 179.337969 153.005642 
L 179.359614 152.909987 
L 179.448202 152.431712 
L 179.517253 152.336058 
L 179.55404 151.857783 
L 179.665381 151.762128 
L 179.771809 150.901234 
L 179.816086 150.805579 
L 179.896913 150.327304 
L 179.940692 150.231649 
L 180.044081 149.849029 
L 180.166876 149.753375 
L 180.240797 149.370755 
L 180.298286 149.2751 
L 180.403982 148.605515 
L 180.529971 148.509861 
L 180.637117 148.031586 
L 180.667063 147.935931 
L 180.778139 147.266347 
L 180.800479 147.170692 
L 180.902489 146.883727 
L 180.947303 146.788072 
L 181.052614 146.214142 
L 181.185446 146.118487 
L 181.28102 145.448903 
L 181.342887 145.353248 
L 181.44182 144.779318 
L 181.515605 144.683664 
L 181.622141 143.44015 
L 181.706552 143.344495 
L 181.812648 142.67491 
L 181.87512 142.579255 
L 181.939698 142.005326 
L 182.021904 141.909671 
L 182.12931 141.048776 
L 182.163472 140.953121 
L 182.268081 140.187882 
L 182.317911 140.092227 
L 182.418098 139.518298 
L 182.489007 139.422643 
L 182.569845 139.231333 
L 182.739491 139.135678 
L 182.826897 138.848713 
L 182.854434 138.753058 
L 182.954406 138.274784 
L 182.982918 138.179129 
L 183.064559 137.605199 
L 183.106813 137.509544 
L 183.138651 137.03127 
L 183.268774 136.935615 
L 183.379245 136.170375 
L 183.466946 136.07472 
L 183.47867 135.692101 
L 183.59235 135.596446 
L 183.60992 135.309481 
L 183.729213 135.213826 
L 183.803763 134.831206 
L 183.89099 134.735551 
L 183.971594 134.352932 
L 184.145119 134.257277 
L 184.21416 133.587692 
L 184.300397 133.492037 
L 184.393998 132.918108 
L 184.417047 132.822453 
L 184.417047 132.726798 
L 184.580481 132.631143 
L 184.690457 132.248523 
L 184.714199 132.152868 
L 184.822483 131.483284 
L 184.872436 131.387629 
L 184.982081 130.718045 
L 185.011255 130.62239 
L 185.107774 130.144115 
L 185.159736 130.04846 
L 185.261857 129.283221 
L 185.282631 129.187566 
L 185.37462 128.517981 
L 185.418331 128.422326 
L 185.44916 128.135362 
L 185.64167 128.039707 
L 185.751899 127.561432 
L 185.786352 127.465777 
L 185.885284 126.891848 
L 185.923071 126.796193 
L 186.022171 126.317918 
L 186.106548 126.222263 
L 186.12154 126.030953 
L 186.243884 125.935298 
L 186.301145 125.457024 
L 186.406526 125.361369 
L 186.495602 124.691784 
L 186.540817 124.596129 
L 186.647627 123.83089 
L 186.680406 123.735235 
L 186.774116 123.352615 
L 186.820135 123.25696 
L 186.892332 122.778686 
L 186.965808 122.683031 
L 187.058584 121.726482 
L 187.127267 121.630827 
L 187.229944 121.248207 
L 187.29861 121.152552 
L 187.397182 120.578623 
L 187.44503 120.482968 
L 187.542033 119.909038 
L 187.559441 119.813383 
L 187.669532 119.430763 
L 187.709269 119.335109 
L 187.786497 118.952489 
L 187.935685 118.856834 
L 187.99573 118.569869 
L 188.0966 118.474214 
L 188.206867 117.517665 
L 188.231969 117.42201 
L 188.284963 117.2307 
L 188.370362 117.135045 
L 188.464137 116.848081 
L 188.495446 116.752426 
L 188.606098 116.178496 
L 188.678387 116.082841 
L 188.753862 115.891531 
L 188.862434 115.795876 
L 188.95295 115.317602 
L 188.982034 115.221947 
L 189.059704 114.743672 
L 189.144966 114.648017 
L 189.226945 114.361052 
L 189.293415 114.265398 
L 189.381009 113.787123 
L 189.463835 113.691468 
L 189.546423 112.830574 
L 189.613094 112.734919 
L 189.723582 112.352299 
L 189.762372 112.256644 
L 189.862785 111.969679 
L 189.878199 111.874024 
L 189.949713 111.300095 
L 190.137225 111.20444 
L 190.175261 110.534855 
L 190.263575 110.439201 
L 190.361267 110.056581 
L 190.400144 109.960926 
L 190.483649 109.386996 
L 190.536225 109.291341 
L 190.586188 109.004377 
L 190.763482 108.908722 
L 190.848773 108.239137 
L 190.896057 108.143482 
L 190.995691 107.569553 
L 191.043015 107.473898 
L 191.146579 106.708659 
L 191.19045 106.613004 
L 191.292086 106.230384 
L 191.371864 106.134729 
L 191.464528 105.17818 
L 191.522368 105.082525 
L 191.633396 104.699905 
L 191.697659 104.60425 
L 191.795163 104.317285 
L 191.88336 104.22163 
L 191.971066 103.743356 
L 192.026475 103.647701 
L 192.104779 102.882462 
L 192.178762 102.786807 
L 192.286773 102.404187 
L 192.299904 102.308532 
L 192.385 101.925912 
L 192.464888 101.830257 
L 192.538669 101.256328 
L 192.689297 101.160673 
L 192.757796 100.969363 
L 192.951788 100.873708 
L 193.028489 100.682398 
L 193.237209 100.586743 
L 193.338648 100.108469 
L 193.402355 100.012814 
L 193.499796 99.630194 
L 193.636304 99.534539 
L 193.691595 99.056265 
L 193.876256 98.96061 
L 193.978505 98.482335 
L 194.084815 98.38668 
L 194.116745 98.099715 
L 194.265945 98.00406 
L 194.358977 97.717096 
L 194.455154 97.621441 
L 194.536184 97.238821 
L 194.601091 97.143166 
L 194.660476 96.856201 
L 194.842477 96.760546 
L 194.952444 96.090962 
L 195.072612 95.995307 
L 195.16476 95.325723 
L 195.1947 95.230068 
L 195.252467 94.847448 
L 195.326442 94.751793 
L 195.422872 94.177863 
L 195.520044 94.082208 
L 195.520044 93.986554 
L 195.738814 93.890899 
L 195.832108 93.412624 
L 195.977376 93.316969 
L 196.053438 92.647385 
L 196.1583 92.55173 
L 196.261409 92.073455 
L 196.298568 91.9778 
L 196.406709 91.403871 
L 196.512931 91.308216 
L 196.592503 90.925596 
L 196.708208 90.829941 
L 196.804289 90.542976 
L 196.908213 90.447321 
L 196.978801 90.064702 
L 197.13454 89.969047 
L 197.221514 89.490772 
L 197.277928 89.395117 
L 197.322808 89.203807 
L 197.457129 89.108152 
L 197.507202 88.629878 
L 197.706202 88.534223 
L 197.769356 88.247258 
L 197.848261 88.151603 
L 197.957285 87.864638 
L 198.003459 87.768983 
L 198.003459 87.673329 
L 198.163409 87.577674 
L 198.270955 87.195054 
L 198.321406 87.099399 
L 198.419439 86.33416 
L 198.473714 86.238505 
L 198.580047 85.473265 
L 198.597584 85.37761 
L 198.670176 84.994991 
L 198.808955 84.899336 
L 198.808955 84.803681 
L 199.006762 84.708026 
L 199.067278 84.421061 
L 199.154599 84.325406 
L 199.264394 83.847132 
L 199.459752 83.751477 
L 199.558263 83.560167 
L 199.687461 83.464512 
L 199.785495 82.986237 
L 199.81152 82.890582 
L 199.904293 81.934033 
L 199.992292 81.838378 
L 200.086345 81.455758 
L 200.257952 81.360104 
L 200.357682 81.168794 
L 200.457482 81.073139 
L 200.5268 80.690519 
L 200.664376 80.594864 
L 200.717581 80.307899 
L 200.832238 80.212244 
L 200.930882 79.829625 
L 201.030774 79.73397 
L 201.1271 79.447005 
L 201.205376 79.35135 
L 201.312132 79.064385 
L 201.356028 78.96873 
L 201.448619 78.394801 
L 201.497958 78.299146 
L 201.603191 77.916526 
L 201.654088 77.820871 
L 201.749402 77.533907 
L 202.061002 77.438252 
L 202.164123 77.151287 
L 202.290862 77.055632 
L 202.38725 76.290393 
L 202.488755 76.194738 
L 202.581844 75.907773 
L 202.613987 75.812118 
L 202.659714 75.429498 
L 202.863334 75.333843 
L 202.954078 74.951224 
L 203.098838 74.855569 
L 203.121539 74.568604 
L 203.317976 74.472949 
L 203.416788 73.899019 
L 203.521365 73.803364 
L 203.583417 73.612055 
L 203.673747 73.5164 
L 203.71404 73.32509 
L 203.915428 73.229435 
L 204.014219 72.75116 
L 204.134425 72.655505 
L 204.182547 72.464196 
L 204.338071 72.368541 
L 204.422382 72.177231 
L 204.587075 72.081576 
L 204.679311 71.890266 
L 204.808579 71.794611 
L 204.906608 71.316336 
L 204.988536 71.220682 
L 205.097373 70.933717 
L 205.18148 70.838062 
L 205.233658 70.551097 
L 205.345224 70.455442 
L 205.440072 70.072822 
L 205.499044 69.977168 
L 205.604122 69.211928 
L 205.641356 69.116273 
L 205.730244 68.733653 
L 206.041974 68.637999 
L 206.10874 68.255379 
L 206.296066 68.159724 
L 206.316939 67.968414 
L 206.822667 67.872759 
L 206.918113 67.29883 
L 206.986052 67.203175 
L 207.02995 66.91621 
L 207.157001 66.820555 
L 207.180405 66.53359 
L 207.368964 66.437935 
L 207.459185 66.055316 
L 207.485376 65.959661 
L 207.592501 65.672696 
L 207.796115 65.577041 
L 207.809188 65.290076 
L 208.021699 65.194421 
L 208.021699 65.098766 
L 208.265843 65.003111 
L 208.347599 64.620492 
L 208.504294 64.524837 
L 208.504294 64.429182 
L 208.822199 64.333527 
L 208.850128 64.142217 
L 208.998191 64.046562 
L 209.081666 63.855252 
L 209.285994 63.759597 
L 209.356298 63.568288 
L 209.569059 63.472633 
L 209.661518 63.281323 
L 209.766119 63.185668 
L 209.832146 62.898703 
L 209.909653 62.803048 
L 209.909653 62.707393 
L 210.255003 62.611738 
L 210.327925 62.229119 
L 210.427432 62.133464 
L 210.427432 62.037809 
L 210.653147 61.942154 
L 210.653147 61.846499 
L 210.774735 61.750844 
L 210.875015 61.368224 
L 211.052723 61.272569 
L 211.148514 61.08126 
L 211.280514 60.985605 
L 211.363381 60.602985 
L 211.579178 60.50733 
L 211.678288 60.12471 
L 211.746754 60.029055 
L 211.746754 59.9334 
L 211.92263 59.837746 
L 211.992729 59.550781 
L 212.189533 59.455126 
L 212.198155 59.263816 
L 212.412749 59.168161 
L 212.42524 58.976851 
L 212.740438 58.881196 
L 212.740438 58.785541 
L 212.90658 58.689886 
L 212.978601 58.402922 
L 213.267281 58.307267 
L 213.355316 57.924647 
L 213.41263 57.828992 
L 213.477684 57.637682 
L 213.64031 57.542027 
L 213.746306 57.350717 
L 213.809764 57.255063 
L 213.911143 57.063753 
L 214.023399 56.968098 
L 214.04929 56.776788 
L 214.237914 56.681133 
L 214.272259 56.394168 
L 214.424189 56.298513 
L 214.525377 56.107203 
L 214.588396 56.011549 
L 214.632118 55.820239 
L 214.976719 55.724584 
L 215.077172 55.533274 
L 215.201264 55.437619 
L 215.212678 55.246309 
L 215.483432 55.150654 
L 215.483432 55.054999 
L 215.630039 54.959344 
L 215.689395 54.67238 
L 215.918392 54.576725 
L 216.021716 54.28976 
L 216.290784 54.194105 
L 216.302023 54.002795 
L 216.558325 53.90714 
L 216.609518 53.71583 
L 216.798713 53.620175 
L 216.798713 53.52452 
L 217.256985 53.428866 
L 217.256985 53.333211 
L 217.395892 53.237556 
L 217.452008 53.046246 
L 217.787518 52.950591 
L 217.842171 52.663626 
L 218.038068 52.567971 
L 218.048822 52.376661 
L 218.246738 52.281006 
L 218.333452 52.089697 
L 218.418797 51.994042 
L 218.418797 51.898387 
L 218.692945 51.802732 
L 218.75575 51.515767 
L 219.011916 51.420112 
L 219.011916 51.324457 
L 219.322506 51.228802 
L 219.322506 51.133147 
L 219.656071 51.037492 
L 219.656071 50.941838 
L 219.939141 50.846183 
L 219.986728 50.559218 
L 220.498462 50.463563 
L 220.526547 50.272253 
L 220.690484 50.176598 
L 220.784193 49.889633 
L 221.1926 49.793978 
L 221.1926 49.698324 
L 221.404115 49.602669 
L 221.404115 49.507014 
L 221.86678 49.411359 
L 221.964492 49.220049 
L 222.230524 49.124394 
L 222.230524 49.028739 
L 222.754987 48.933084 
L 222.858519 48.741774 
L 223.017158 48.646119 
L 223.029706 48.454809 
L 223.838922 48.359155 
L 223.851037 48.167845 
L 224.29255 48.07219 
L 224.355456 47.88088 
L 224.579345 47.785225 
L 224.605585 47.593915 
L 225.801684 47.49826 
L 225.801684 47.402605 
L 226.486677 47.30695 
L 226.486677 47.211295 
L 226.720072 47.115641 
L 226.720072 47.019986 
L 227.766928 46.924331 
L 227.766928 46.828676 
L 227.881821 46.733021 
L 227.881821 46.637366 
L 228.073953 46.541711 
L 228.073953 46.446056 
L 228.425992 46.350401 
L 228.425992 46.254746 
L 228.622232 46.159091 
L 228.622232 46.063436 
L 229.060379 45.967781 
L 229.060379 45.872127 
L 229.484848 45.776472 
L 229.484848 45.680817 
L 231.327329 45.585162 
L 231.327329 45.489507 
L 232.219461 45.393852 
L 232.264441 45.202542 
L 232.52457 45.106887 
L 232.52457 45.011232 
L 233.520101 44.915577 
L 233.625478 44.628613 
L 235.358861 44.532958 
L 235.358861 44.437303 
L 235.761456 44.341648 
L 235.761456 44.245993 
L 236.394638 44.150338 
L 236.394638 44.054683 
L 237.081991 43.959028 
L 237.081991 43.863373 
L 238.775471 43.767718 
L 238.775471 43.672063 
L 239.916034 43.576408 
L 239.916034 43.480753 
L 240.275929 43.385098 
L 240.304735 43.193789 
L 241.13897 43.098134 
L 241.13897 43.002479 
L 242.121346 42.906824 
L 242.121346 42.811169 
L 243.407936 42.715514 
L 243.407936 42.619859 
L 244.660677 42.524204 
L 244.660677 42.428549 
L 247.15238 42.332894 
L 247.15238 42.237239 
L 249.758707 42.141584 
L 249.758707 42.04593 
L 251.593465 41.950275 
L 251.593465 41.85462 
L 254.218289 41.758965 
L 254.218289 41.66331 
L 279.076385 41.567655 
L 279.076385 41.472 
L 279.076385 41.472 
" clip-path="url(#pbd3beef080)" style="fill: none; stroke: #ff7f0e; stroke-width: 3; stroke-linecap: square"/>
   </g>
   <g id="line2d_18">
    <path d="M 173.630159 307.584 
L 173.630159 41.472 
" clip-path="url(#pbd3beef080)" style="fill: none; stroke-dasharray: 11.1,4.8; stroke-dashoffset: 0; stroke: #000000; stroke-opacity: 0.5; stroke-width: 3"/>
   </g>
   <g id="patch_3">
    <path d="M 57.6 307.584 
L 57.6 41.472 
" style="fill: none; stroke: #000000; stroke-width: 0.8; stroke-linejoin: miter; stroke-linecap: square"/>
   </g>
   <g id="patch_4">
    <path d="M 414.72 307.584 
L 414.72 41.472 
" style="fill: none; stroke: #000000; stroke-width: 0.8; stroke-linejoin: miter; stroke-linecap: square"/>
   </g>
   <g id="patch_5">
    <path d="M 57.6 307.584 
L 414.72 307.584 
" style="fill: none; stroke: #000000; stroke-width: 0.8; stroke-linejoin: miter; stroke-linecap: square"/>
   </g>
   <g id="patch_6">
    <path d="M 57.6 41.472 
L 414.72 41.472 
" style="fill: none; stroke: #000000; stroke-width: 0.8; stroke-linejoin: miter; stroke-linecap: square"/>
   </g>
   <g id="legend_1">
    <g id="patch_7">
     <path d="M 176.11 302.584 
L 296.21 302.584 
Q 298.21 302.584 298.21 300.584 
L 298.21 273.026187 
Q 298.21 271.026187 296.21 271.026187 
L 176.11 271.026187 
Q 174.11 271.026187 174.11 273.026187 
L 174.11 300.584 
Q 174.11 302.584 176.11 302.584 
z
" style="fill: #ffffff; opacity: 0.8"/>
    </g>
    <g id="line2d_19">
     <path d="M 178.11 278.684 
L 188.11 278.684 
L 188.11 278.684 
L 198.11 278.684 
L 198.11 278.684 
" style="fill: none; stroke: #1f77b4; stroke-width: 3; stroke-linecap: square"/>
    </g>
    <g id="text_16">
     <!-- $\rho$ across genes -->
     <g transform="translate(206.11 282.184)">
      <text>
       <tspan x="0" y="-0.40625" style="font-style: oblique; font-size: 10px; font-family: 'DejaVu Sans'">ρ</tspan>
       <tspan x="6.347656" y="-0.40625" style="font-size: 10px; font-family: 'Arial Unicode MS'"> </tspan>
       <tspan x="9.125977" y="-0.40625" style="font-size: 10px; font-family: 'Arial Unicode MS'">a</tspan>
       <tspan x="14.6875" y="-0.40625" style="font-size: 10px; font-family: 'Arial Unicode MS'">c</tspan>
       <tspan x="19.6875" y="-0.40625" style="font-size: 10px; font-family: 'Arial Unicode MS'">r</tspan>
       <tspan x="23.017578" y="-0.40625" style="font-size: 10px; font-family: 'Arial Unicode MS'">o</tspan>
       <tspan x="28.579102" y="-0.40625" style="font-size: 10px; font-family: 'Arial Unicode MS'">s</tspan>
       <tspan x="33.579102" y="-0.40625" style="font-size: 10px; font-family: 'Arial Unicode MS'">s</tspan>
       <tspan x="38.579102" y="-0.40625" style="font-size: 10px; font-family: 'Arial Unicode MS'"> </tspan>
       <tspan x="41.357422" y="-0.40625" style="font-size: 10px; font-family: 'Arial Unicode MS'">g</tspan>
       <tspan x="46.918945" y="-0.40625" style="font-size: 10px; font-family: 'Arial Unicode MS'">e</tspan>
       <tspan x="52.480469" y="-0.40625" style="font-size: 10px; font-family: 'Arial Unicode MS'">n</tspan>
       <tspan x="58.041992" y="-0.40625" style="font-size: 10px; font-family: 'Arial Unicode MS'">e</tspan>
       <tspan x="63.603516" y="-0.40625" style="font-size: 10px; font-family: 'Arial Unicode MS'">s</tspan>
      </text>
     </g>
    </g>
    <g id="line2d_20">
     <path d="M 178.11 292.984 
L 188.11 292.984 
L 188.11 292.984 
L 198.11 292.984 
L 198.11 292.984 
" style="fill: none; stroke: #ff7f0e; stroke-width: 3; stroke-linecap: square"/>
    </g>
    <g id="text_17">
     <!-- $\rho$ across individuals -->
     <g transform="translate(206.11 296.484)">
      <text>
       <tspan x="0" y="-0.84375" style="font-style: oblique; font-size: 10px; font-family: 'DejaVu Sans'">ρ</tspan>
       <tspan x="6.347656" y="-0.84375" style="font-size: 10px; font-family: 'Arial Unicode MS'"> </tspan>
       <tspan x="9.125977" y="-0.84375" style="font-size: 10px; font-family: 'Arial Unicode MS'">a</tspan>
       <tspan x="14.6875" y="-0.84375" style="font-size: 10px; font-family: 'Arial Unicode MS'">c</tspan>
       <tspan x="19.6875" y="-0.84375" style="font-size: 10px; font-family: 'Arial Unicode MS'">r</tspan>
       <tspan x="23.017578" y="-0.84375" style="font-size: 10px; font-family: 'Arial Unicode MS'">o</tspan>
       <tspan x="28.579102" y="-0.84375" style="font-size: 10px; font-family: 'Arial Unicode MS'">s</tspan>
       <tspan x="33.579102" y="-0.84375" style="font-size: 10px; font-family: 'Arial Unicode MS'">s</tspan>
       <tspan x="38.579102" y="-0.84375" style="font-size: 10px; font-family: 'Arial Unicode MS'"> </tspan>
       <tspan x="41.357422" y="-0.84375" style="font-size: 10px; font-family: 'Arial Unicode MS'">i</tspan>
       <tspan x="43.579102" y="-0.84375" style="font-size: 10px; font-family: 'Arial Unicode MS'">n</tspan>
       <tspan x="49.140625" y="-0.84375" style="font-size: 10px; font-family: 'Arial Unicode MS'">d</tspan>
       <tspan x="54.702148" y="-0.84375" style="font-size: 10px; font-family: 'Arial Unicode MS'">i</tspan>
       <tspan x="56.923828" y="-0.84375" style="font-size: 10px; font-family: 'Arial Unicode MS'">v</tspan>
       <tspan x="61.923828" y="-0.84375" style="font-size: 10px; font-family: 'Arial Unicode MS'">i</tspan>
       <tspan x="64.145508" y="-0.84375" style="font-size: 10px; font-family: 'Arial Unicode MS'">d</tspan>
       <tspan x="69.707031" y="-0.84375" style="font-size: 10px; font-family: 'Arial Unicode MS'">u</tspan>
       <tspan x="75.268555" y="-0.84375" style="font-size: 10px; font-family: 'Arial Unicode MS'">a</tspan>
       <tspan x="80.830078" y="-0.84375" style="font-size: 10px; font-family: 'Arial Unicode MS'">l</tspan>
       <tspan x="83.051758" y="-0.84375" style="font-size: 10px; font-family: 'Arial Unicode MS'">s</tspan>
      </text>
     </g>
    </g>
   </g>
  </g>
 </g>
 <defs>
  <clipPath id="pbd3beef080">
   <rect x="57.6" y="41.472" width="357.12" height="266.112"/>
  </clipPath>
 </defs>
</svg>
